<?xml version="1.0" encoding="UTF-8" standalone="no"?>
<!-- Created with Inkscape (http://www.inkscape.org/) -->

<svg
   width="210mm"
   height="131.5mm"
   viewBox="0 0 210 131.5"
   version="1.1"
   id="svg5"
   xml:space="preserve"
   inkscape:version="1.2.2 (732a01da63, 2022-12-09)"
   sodipodi:docname="dieSylterApe.svg"
   xmlns:inkscape="http://www.inkscape.org/namespaces/inkscape"
   xmlns:sodipodi="http://sodipodi.sourceforge.net/DTD/sodipodi-0.dtd"
   xmlns="http://www.w3.org/2000/svg"
   xmlns:svg="http://www.w3.org/2000/svg"><sodipodi:namedview
     id="namedview7"
     pagecolor="#ffffff"
     bordercolor="#000000"
     borderopacity="0.25"
     inkscape:showpageshadow="2"
     inkscape:pageopacity="0.0"
     inkscape:pagecheckerboard="0"
     inkscape:deskcolor="#d1d1d1"
     inkscape:document-units="mm"
     showgrid="false"
     inkscape:zoom="1.1893044"
     inkscape:cx="530.14182"
     inkscape:cy="346.00057"
     inkscape:window-width="1920"
     inkscape:window-height="1010"
     inkscape:window-x="-6"
     inkscape:window-y="-6"
     inkscape:window-maximized="1"
     inkscape:current-layer="layer3" /><defs
     id="defs2" /><g
     inkscape:label="Ebene 1"
     inkscape:groupmode="layer"
     id="layer1"><g
       id="g702"
       transform="matrix(1.9451759,0,0,1.9451759,46.335455,-174.7851)"><path
         id="path700"
         style="fill:#222121;stroke-width:0.127"
         d="m 32.330299,92.763155 c -8.968502,-0.07896 -18.025252,1.256534 -26.1126179,4.015258 -12.1448893,4.142867 -21.1400261,10.936427 -24.9736691,18.861377 -0.915419,1.89241 -1.273397,2.89437 -1.725993,4.83123 -0.323318,1.38366 -0.355451,1.73916 -0.359151,3.99511 -0.0045,2.73113 0.142277,3.77554 0.838708,5.96449 3.832927,12.04795 19.38992637,21.42496 39.283907,23.67814 1.835791,0.20793 4.889047,0.44498 6.540686,0.50798 3.728944,0.14228 9.820519,-0.15924 13.888041,-0.68781 20.34001,-2.64316 36.559827,-12.62483 40.582019,-24.97419 2.421336,-7.43417 0.323825,-15.17897 -5.803263,-21.42711 -4.266582,-4.351 -9.674521,-7.709628 -16.573149,-10.293947 -7.735999,-2.898024 -16.617016,-4.391587 -25.585518,-4.470528 z m -0.81287,0.550354 c 11.370535,-0.01285 21.938584,2.155445 30.753678,6.348966 9.91409,4.716405 16.551397,11.834645 18.096053,19.406565 2.155796,10.56779 -4.967234,21.09976 -18.906856,27.95644 -7.625414,3.75065 -16.427144,6.03861 -26.319324,6.84092 v 5.2e-4 c -2.903846,0.23525 -10.177602,0.22865 -13.013159,-0.006 -13.3162038,-1.11789 -24.9060849,-5.20391 -32.817635,-11.57036 -5.049569,-4.06324 -8.222292,-8.86085 -9.352401,-14.14125 -0.410349,-1.91723 -0.406281,-5.32094 0.0088,-7.23108 1.630926,-7.51033 7.339448,-14.16958 16.5369753,-19.29237 7.9327887,-4.418251 18.3081587,-7.347444 28.6199587,-8.079607 2.154693,-0.152991 4.288267,-0.230164 6.393925,-0.232544 z m -20.653003,9.968381 c -5.2144226,0.0163 -8.951186,0.50467 -9.7570273,1.31052 -0.41307908,0.41309 -0.38237378,0.77619 0.1038696,1.23041 l 0.4082438,0.38137 -3.0437418,6.05131 -3.0432251,6.05132 v 3.54086 3.54087 l -0.8562785,0.52297 c -1.966543,1.20176 -3.1094935,2.40414 -3.644222,3.83336 -0.3144389,0.84043 -0.3222134,0.99345 -0.062529,1.25315 0.1449933,0.14497 0.4531779,0.19947 1.127063,0.19947 0.5101455,0 1.1050942,0.0352 1.3218831,0.0786 l 0.3942912,0.0791 -0.5095296,0.57878 c -1.6185698,1.83883 -2.0030271,4.39406 -0.9777181,6.50245 0.2207946,0.45402 0.4248423,0.87301 0.4532023,0.93121 0.00821,0.0168 -0.00619,0.0203 -0.029456,0.0186 0.00673,0.0145 0.013201,0.0291 0.01912,0.0439 0.01663,0.0365 0.033303,0.0731 0.049093,0.11007 0.016556,0.0388 0.040258,0.0744 0.063562,0.10956 l 5.168e-4,5.2e-4 c 0.2510604,0.20829 0.5036568,0.41781 0.7358724,0.60823 0.00566,0.0245 0.017046,0.0564 0.023771,0.0822 0.024535,0.0184 0.049479,0.0361 0.073897,0.0548 0.02808,0.0237 0.059433,0.0433 0.088883,0.0651 0.028059,0.0206 0.056439,0.0407 0.084749,0.061 0.039589,0.0263 0.071857,0.0609 0.1059367,0.0935 0.02732,0.0298 0.061514,0.0505 0.093534,0.0744 0.02787,0.019 0.055719,0.0386 0.084749,0.0558 0.034277,0.0222 0.06874,0.0432 0.1038697,0.0641 0.042112,0.026 0.082664,0.055 0.1240234,0.0822 0.036449,0.0245 0.075051,0.0454 0.1131714,0.0672 0.042566,0.0207 0.08057,0.0489 0.1229899,0.0698 0.046781,0.0222 0.093063,0.0459 0.1384928,0.0708 0.040168,0.0196 0.082324,0.0343 0.1240235,0.0501 0.04136,0.0188 0.083357,0.0362 0.1266072,0.0501 0.050629,0.0139 0.098458,0.0354 0.1472779,0.0543 0.041503,0.0178 0.084061,0.0336 0.1276408,0.0455 0.049526,0.0148 0.098348,0.0311 0.1488281,0.0424 0.054633,0.0147 0.1106415,0.0231 0.1658813,0.0351 0.047437,0.0116 0.095898,0.015 0.1441773,0.0212 0.056516,0.006 0.1121752,0.019 0.1684652,0.0269 0.057501,0.006 0.1148025,0.0132 0.1720825,0.0207 0.054074,0.005 0.1076837,0.0101 0.1607137,0.0222 0.048036,0.0106 0.095301,0.025 0.1436605,0.0341 0.050783,0.009 0.1012956,0.0193 0.1524454,0.0258 0.053739,0.004 0.1055232,0.0173 0.1576132,0.03 0.046315,0.008 0.09246,0.0187 0.1390096,0.0258 0.028689,0.004 0.057407,0.006 0.0863,0.008 -0.00406,-0.004 -0.00774,-0.008 -0.011886,-0.0114 0.8736006,0.0148 1.7323839,-0.10143 2.66805422,-0.35398 0.25386406,-0.0495 0.58220472,-0.0948 0.96841634,-0.13695 0.0372587,-0.0254 0.0811551,-0.0487 0.13229166,-0.0687 0.01597,-0.006 0.0315723,-0.0123 0.0475423,-0.0186 0.11457324,-0.0496 0.23120692,-0.0918 0.34829918,-0.13487 0.063612,-0.0226 0.1253576,-0.0481 0.173116,-0.0972 0.1020784,-0.0855 0.2161306,-0.15066 0.333313,-0.21342 0.096343,-0.0536 0.1900341,-0.11261 0.2775025,-0.17983 0.1015384,-0.0761 0.2008009,-0.15473 0.3105753,-0.21911 0.093822,-0.0628 0.183252,-0.1329 0.2666504,-0.20878 0.080798,-0.0688 0.14495,-0.15447 0.2206584,-0.2284 0.088505,-0.0952 0.1731857,-0.19321 0.2759521,-0.27389 0.021367,-0.0169 0.043143,-0.0331 0.065112,-0.0491 -0.030576,0.004 -0.057678,0.006 -0.088367,0.0103 -0.1804206,0.0524 -0.1375727,-0.094 0.2160075,-0.73794 0.7952344,-1.44832 1.0169653,-2.90305 0.6547404,-4.29948 -0.099045,-0.38185 -0.1619063,-0.71243 -0.1395263,-0.73483 0.1091116,-0.10912 0.7717313,0.91317 0.8273396,1.2764 l 0.063562,0.41496 2.7941446,-0.003 c 1.5366745,-0.001 4.3254769,-0.0815 6.1975549,-0.17776 l 3.403927,-0.17519 0.210323,0.3049 c 0.11559,0.16741 0.372264,0.46872 0.570508,0.6692 0.05532,0.056 0.103931,0.11056 0.146761,0.16227 0.0127,0.009 0.02538,0.0205 0.03824,0.0331 0.05033,0.0492 0.09879,0.10095 0.150895,0.14831 0.04805,0.0471 0.09695,0.0927 0.146761,0.13798 0.03412,0.0376 0.07297,0.0687 0.113172,0.0992 0.05366,0.038 0.109234,0.0732 0.165364,0.10748 0.07063,0.0408 0.142731,0.0784 0.215491,0.11524 0.07296,0.033 0.147512,0.0628 0.220142,0.0966 0.05357,0.0252 0.110541,0.0404 0.167431,0.0558 0.08131,0.0194 0.163387,0.0329 0.244947,0.0512 0.08482,0.0192 0.170515,0.0364 0.256315,0.0506 0.102557,0.0154 0.204796,0.0318 0.307475,0.0465 0.106639,0.0135 0.212189,0.0336 0.318843,0.047 0.06852,0.007 0.13737,0.009 0.206189,0.0119 0.0033,-10e-4 0.0065,-0.002 0.0098,-0.004 0.06209,-0.0218 0.124939,-0.0414 0.184484,-0.0698 0.04433,-0.0204 0.08898,-0.041 0.128675,-0.0698 0.05505,-0.0357 0.110371,-0.0709 0.167431,-0.10335 0.04902,-0.0253 0.09862,-0.0497 0.148829,-0.0724 0.049,-0.0493 0.09907,-0.0977 0.155029,-0.13953 0.09695,-0.0732 0.201671,-0.13754 0.287321,-0.22427 0.13876,-0.13519 0.294192,-0.25176 0.459403,-0.35295 0.04415,-0.0236 0.08824,-0.0477 0.132809,-0.0708 l 0.254248,-0.26355 c 0.285771,-0.29686 0.581454,-0.66169 0.657324,-0.81028 0.129692,-0.25398 0.265696,-0.27514 2.269112,-0.35244 1.172104,-0.0452 2.459704,-0.11493 2.861324,-0.15503 l 0.730188,-0.0729 0.0015,0.86971 c 8.26e-4,0.47834 0.09041,1.1842 0.198955,1.56838 0.108547,0.38417 0.207798,0.78406 0.220658,0.88884 0.0044,0.0358 -0.0034,0.0659 -0.01809,0.0925 0.0012,0.002 0.0024,0.003 0.0036,0.005 0.08906,0.0944 0.157966,0.20183 0.225826,0.31161 0.05674,0.0981 0.101267,0.20356 0.142627,0.30902 0.03778,0.0745 0.08024,0.14501 0.113171,0.22221 0.02495,0.0481 0.04665,0.0978 0.07441,0.14418 0.111955,0.0172 0.257539,0.15366 0.409794,0.38912 0.161264,0.24936 0.497136,0.53828 0.746208,0.64234 l 0.452685,0.18862 c -0.03038,0.0189 -0.05798,0.0357 -0.08578,0.0527 0.0695,-0.001 0.138786,-0.003 0.208256,-0.005 0.15606,-0.006 0.311762,-0.0155 0.466638,-0.0367 0.150093,-0.0214 0.297825,-0.0551 0.447001,-0.0816 0.126501,-0.0229 0.254269,-0.0397 0.378271,-0.0749 0.132508,-0.0256 0.260455,-0.0666 0.387574,-0.11162 0.183137,-0.0541 0.365494,-0.11208 0.55087,-0.15813 0.239518,-0.0586 0.482522,-0.10232 0.72192,-0.16175 0.151906,-0.0313 0.303469,-0.0637 0.452169,-0.10749 0.03757,-0.0338 0.07608,-0.066 0.116789,-0.0961 0.08042,-0.053 0.16177,-0.10284 0.24753,-0.14676 0.106935,-0.06 0.22032,-0.10609 0.329179,-0.16227 0.102291,-0.0498 0.200733,-0.10629 0.299723,-0.16226 0.06211,-0.0347 0.121158,-0.0735 0.176217,-0.11782 5.44e-4,-4.9e-4 7e-4,-3.3e-4 0.0016,-0.002 0.09758,-0.0875 0.192601,-0.17804 0.283704,-0.27234 0.02568,-0.0251 0.05268,-0.0486 0.07906,-0.0729 0.01673,-0.0239 0.03149,-0.0497 0.04341,-0.077 0.04429,-0.0769 0.07401,-0.16248 0.115755,-0.24081 0.05539,-0.10497 0.09734,-0.21674 0.156579,-0.31988 0.06743,-0.11533 0.142123,-0.22401 0.226343,-0.32763 0.01036,-0.0128 0.02099,-0.0252 0.03152,-0.0367 0.06707,-0.1547 0.1656,-0.36959 0.300757,-0.64699 0.549923,-1.12862 0.803501,-2.2576 0.801501,-3.57187 -0.0062,-4.56511 -3.932405,-6.44915 -7.062101,-3.38894 l -0.738973,0.72192 0.08837,-1.39682 c 0.04862,-0.76831 0.114594,-1.42547 0.146244,-1.46037 0.03166,-0.0349 1.86744,-0.0843 4.079338,-0.10904 2.211879,-0.0247 4.121428,-0.0977 4.243668,-0.16278 0.30418,-0.16194 0.283629,-0.70225 -0.03307,-0.87178 -0.17903,-0.0958 -2.2479,-0.11131 -6.921541,-0.0496 l -6.66626,0.0889 v -2.94039 -2.94038 h 1.143083 1.143082 v -0.50798 -0.50798 h -1.143082 -1.143083 v -1.42886 c -4.7e-4,-3.21206 -0.523582,-8.76424 -1.004073,-10.65619 l -0.227893,-0.89917 3.187919,0.092 c 6.188692,0.17695 11.064606,0.27084 11.285616,0.21704 0.30589,-0.0744 0.431257,-0.63019 0.195337,-0.8661 -0.15198,-0.15199 -1.067475,-0.20667 -5.064807,-0.30127 -2.683506,-0.0635 -5.926504,-0.15305 -7.206279,-0.19895 -2.289123,-0.082 -2.328791,-0.0884 -2.463932,-0.38499 -0.449474,-0.98653 -4.442635,-1.64357 -10.82983,-1.78232 -0.800993,-0.0174 -1.576392,-0.0245 -2.321305,-0.0222 z m 1.779219,1.16996 c 3.529839,0.0324 6.9161,0.23038 8.352462,0.57722 0.28509,0.0688 -0.640335,0.11241 -2.580204,0.12041 -1.815855,0.008 -3.122602,0.0658 -3.270085,0.14469 -0.274571,0.14695 -0.326912,0.62571 -0.09353,0.85886 0.08382,0.0838 0.312399,0.15245 0.507979,0.15245 0.19558,0 0.35455,0.0427 0.35295,0.0951 -0.0016,0.0524 -0.448931,1.90514 -0.993737,4.11706 -0.904558,3.67224 -1.025903,4.06204 -1.400432,4.48861 -0.396354,0.45144 -0.403367,0.47821 -0.202055,0.78548 0.195133,0.29782 0.190898,0.38908 -0.0708,1.44798 l -0.27957,1.13068 -0.461987,-0.0196 c -0.520633,-0.022 -4.4576954,-0.15041 -10.9331829,-0.35708 -2.40630293,-0.0768 -4.3950202,-0.15957 -4.4193685,-0.18397 -0.024351,-0.0243 0.1442365,-0.42969 0.3746541,-0.90072 l 0.4190959,-0.85628 2.34921058,0.0786 c 3.58043282,0.11983 11.62330782,0.13247 11.80754782,0.0186 0.250313,-0.1547 1.200992,-2.25774 1.702739,-3.76669 0.680313,-2.04624 0.995775,-3.76392 0.946195,-5.15421 -0.03754,-1.05256 -0.07454,-1.20396 -0.359668,-1.48622 -0.316556,-0.31337 -0.328542,-0.31514 -4.063834,-0.447 -2.0605474,-0.0727 -4.4895708,-0.13336 -5.3976038,-0.13436 -1.6825618,-0.003 -2.4279956,-0.14848 -1.5022339,-0.29352 2.0120725,-0.31521 5.6856355,-0.44837 9.2154577,-0.41599 z m -9.7900997,1.79007 h 0.5302002 c 0.2918329,0 2.7115267,0.0494 5.3769328,0.10955 l 4.8467327,0.10956 0.08061,0.43098 c 0.11686,0.62292 -0.133361,2.23024 -0.625285,4.01784 -0.466937,1.69685 -1.367836,4.01868 -1.622123,4.18011 -0.08797,0.0559 -0.417413,0.0896 -0.731738,0.0749 -0.314325,-0.0146 -3.1718806,-0.0586 -6.3500002,-0.0977 -3.1781206,-0.0392 -5.7910507,-0.0837 -5.8068807,-0.0987 -0.015826,-0.015 0.94548796,-1.98464 2.13630373,-4.377 z m 18.2531497,0.0574 0.07751,0.5426 c 0.149024,1.04283 0.942917,7.90002 0.917257,7.92252 -0.01424,0.0125 -1.483259,0.14349 -3.2644,0.29145 -3.631988,0.3017 -4.041453,0.31767 -3.866948,0.15141 0.06636,-0.0632 0.543518,-0.46584 1.060401,-0.89503 0.653997,-0.54305 1.001676,-0.75278 1.143082,-0.68988 0.86306,0.38366 1.824601,-0.0123 2.158008,-0.88832 0.252971,-0.66466 0.004,-1.40896 -0.608748,-1.82056 -1.011864,-0.67975 -2.327778,0.01 -2.32854,1.22008 -2.45e-4,0.36541 -0.08846,0.53256 -0.434599,0.82424 -0.238749,0.20119 -0.462681,0.33677 -0.498161,0.30127 -0.03548,-0.0355 0.323829,-1.60029 0.798401,-3.47731 l 0.86248,-3.41271 1.992126,-0.0351 z m 1.264005,0.14211 c 0.03843,-0.003 0.08927,0.002 0.15503,0.0114 0.230679,0.0335 0.34826,0.19382 0.53175,0.72605 0.723972,2.09996 1.113627,6.9059 1.113627,13.75317 2.16e-4,4.87172 -0.09589,7.1686 -0.44235,10.57351 -0.09896,0.97269 -0.152783,1.81246 -0.119373,1.86656 0.09446,0.15285 -0.530598,0.20972 -3.946529,0.35863 -4.708639,0.20528 -4.365099,0.23459 -5.079793,-0.43098 -0.556314,-0.51808 -0.599148,-0.5995 -0.516248,-0.98444 0.0497,-0.23076 0.114077,-3.61972 0.142627,-7.53132 0.03904,-5.34963 0.09267,-7.25389 0.217558,-7.68377 l 0.166398,-0.57102 1.073836,-0.0904 c 0.590802,-0.0495 2.47002,-0.20394 4.175456,-0.34313 2.35596,-0.19229 3.14699,-0.29963 3.294373,-0.447 0.173952,-0.17396 0.144397,-0.62328 -0.288355,-4.35581 -0.265375,-2.28887 -0.513397,-4.32395 -0.55087,-4.5222 -0.04542,-0.24038 -0.04243,-0.32037 0.07286,-0.32918 z m 5.585189,2.14819 c -2.585263,-10e-4 -2.641699,0.10427 -2.641699,0.50953 0,0.52143 0.169421,0.54008 5.876127,0.63148 3.019645,0.0484 5.558199,0.0971 5.640999,0.10904 0.36982,0.053 0.802019,-0.23327 0.802019,-0.53123 0,-0.61818 -0.01251,-0.61945 -6.157764,-0.68885 -1.515331,-0.0171 -2.657927,-0.0295 -3.519682,-0.03 z m 4.72891,1.4211 c -0.188821,-0.001 -0.380932,0.004 -0.576192,0.015 -2.33139,0.13596 -3.872632,1.1827 -3.872632,2.62981 0,1.35895 1.365308,2.37282 3.575493,2.65565 2.514133,0.32171 5.058433,-0.69786 5.378483,-2.1549 0.382118,-1.7398 -1.672625,-3.12879 -4.505152,-3.14555 z m -0.07286,1.13585 c 0.145656,0.001 0.295174,0.006 0.449068,0.015 1.641158,0.0936 3.047876,0.81231 3.047876,1.55753 0,0.37808 -0.607756,0.91842 -1.351339,1.20096 -0.647563,0.24605 -2.101705,0.40542 -2.776058,0.30438 -1.268586,-0.19005 -2.275523,-0.70223 -2.610176,-1.32757 -0.186881,-0.3492 0.134821,-0.88694 0.724503,-1.2113 0.674412,-0.37097 1.496432,-0.54763 2.516126,-0.53898 z m -0.757577,4.67155 c -2.821682,0 -5.642987,0.0552 -5.75262,0.16485 -0.224358,0.22435 -0.185408,0.70349 0.06976,0.85886 0.263385,0.16034 11.013518,0.11538 11.366231,-0.047 0.25485,-0.11767 0.295111,-0.58654 0.06976,-0.81183 -0.10963,-0.10964 -2.931454,-0.16485 -5.753137,-0.16485 z m -10.176123,3.06028 c -1.459743,0 -1.825211,0.11445 -1.825211,0.57154 0,0.0948 0.08971,0.2623 0.199471,0.37207 0.154434,0.15447 0.483192,0.19947 1.452624,0.19947 1.473789,0 1.90376,-0.12288 1.90376,-0.54312 0,-0.52554 -0.214805,-0.59996 -1.730644,-0.59996 z m -25.0661701,0.11834 1.3017293,0.0362 1.30172931,0.0362 0.0377238,0.85731 0.0377238,0.8568 -0.79995121,-0.0217 c -0.4397455,-0.0122 -1.0420784,-0.0446 -1.3389363,-0.0713 l -0.5400187,-0.0486 v -0.82218 z m 3.17499995,0.1359 h 1.71462405 1.714624 v 0.88884 0.88883 l -1.1115601,-0.0227 c -0.6111778,-0.0126 -1.38284276,-0.0441 -1.71462398,-0.0703 l -0.60306397,-0.0481 v -0.81856 z m 4.62762455,0.091 c 0.1517085,-1.2e-4 0.3419372,0.004 0.5792928,0.0129 l 1.1430827,0.0408 v 0.88005 0.88005 l -0.539502,-0.0238 c -0.2968579,-0.0129 -0.8477327,-0.0448 -1.2236979,-0.0708 l -0.6831625,-0.047 0.079065,-0.65939 c 0.04357,-0.36274 0.079591,-0.7453 0.080099,-0.85007 5.055e-4,-0.11831 0.1096945,-0.16241 0.5648234,-0.16279 z m 2.2303548,0.0233 2.7621053,0.0755 c 3.2218545,0.0878 3.8769395,0.1493 3.8075195,0.35863 -0.03513,0.10593 -0.865315,0.17209 -2.833419,0.22479 -1.530989,0.041 -2.7961677,0.0838 -2.8111977,0.0951 -0.015033,0.0114 -0.22904,0.19818 -0.4759399,0.41496 l -0.4490682,0.39429 v -0.78186 z m 2.9031819,1.69189 c 0.4425798,0.001 0.9840799,0.0178 1.6495119,0.0465 l 2.090312,0.0904 -0.08423,2.67942 c -0.04611,1.47383 -0.120551,4.1773 -0.165881,6.00739 l -0.08268,3.32744 0.335897,0.43977 0.33538,0.44028 -0.918807,0.0708 c -0.505471,0.0388 -2.119512,0.12944 -3.5863442,0.20154 -1.4668245,0.0721 -2.85239,0.13047 -3.0793986,0.13022 H 5.6290865 v -1.38286 c 0,-3.53176 -1.4594995,-7.19123 -3.2344279,-8.10958 -0.6460651,-0.33427 -1.60975355,-0.53768 -2.54403074,-0.53692 -0.76336391,6e-4 -1.33026656,0.09 -2.95279136,0.46715 -0.2836449,0.0659 -0.2857706,0.0562 -0.2857706,-1.40094 0,-0.8073 0.050675,-1.49959 0.1126546,-1.53789 0.061983,-0.0383 1.4194256,-0.0148 3.01635333,0.0522 1.59692787,0.067 3.84667177,0.13801 4.99917807,0.15761 2.2730309,0.0386 2.4466777,-0.002 2.8396199,-0.66766 0.2049349,-0.3469 0.6406194,-0.47894 1.9683553,-0.4749 z m -9.44593501,4.54442 c 1.44219521,7.4e-4 1.93450251,0.19707 2.54713131,1.01544 0.9111017,1.21708 1.6185253,3.32144 1.8882569,5.6193 0.03895,0.33179 0.028829,0.60141 -0.022221,0.59841 -0.051051,-0.003 -0.5071763,-0.3983 -1.0133748,-0.87798 -1.4803472,-1.40282 -1.5279628,-1.41663 -5.2802979,-1.53996 -1.7585334,-0.0578 -3.7689395,-0.10865 -4.4674276,-0.11265 -1.4108575,-0.009 -1.6575696,-0.0901 -1.5275553,-0.49971 0.1181543,-0.37227 1.351798,-1.68613 2.0959961,-2.23243 1.7091931,-1.25468 3.8114706,-1.97142 5.77949229,-1.97042 z m 25.10492791,2.0314 h 2.104781 2.104264 l -0.08837,1.99058 c -0.04885,1.09478 -0.118305,2.03778 -0.153995,2.09548 -0.03569,0.0577 -1.019635,0.1049 -2.18643,0.1049 h -2.121318 l 0.101803,-1.30173 c 0.05599,-0.71596 0.132712,-1.65892 0.170532,-2.09548 z m 9.066113,1.77354 c 0.644435,-0.0155 1.257639,0.21628 1.759582,0.71675 0.20247,0.20186 0.516292,0.68139 0.697632,1.06557 0.45172,0.95699 0.470776,2.81867 0.04186,4.06383 -0.610093,1.77097 -1.330877,2.65794 -2.594673,3.19257 -0.50936,0.21546 -0.983316,0.43404 -1.053166,0.48524 -0.723032,0.53032 -2.123666,-0.24631 -2.71353,-1.5043 -0.307258,-0.65529 -0.333561,-0.84087 -0.325561,-2.30012 0.0099,-1.79957 0.172683,-2.36141 1.069185,-3.68142 0.882752,-1.29993 2.044603,-2.01232 3.118673,-2.03812 z m -37.7036418,2.09031 c 0.3770601,-0.003 0.8646515,0.0161 1.5306559,0.0372 l 2.31355387,0.0739 0.71365153,0.63562 c 0.8471294,0.75505 1.2337761,1.33309 1.506368,2.25103 0.5372265,1.80906 -0.1160727,3.88732 -1.6045532,5.1046 -0.45068774,0.36858 -0.85092035,0.5437 -1.81332603,0.79375 -2.19024657,0.56909 -3.53752827,0.32146 -4.88859047,-0.89917 -1.015697,-0.91763 -1.6263978,-2.52471 -1.4614095,-3.84525 0.1590746,-1.27321 0.5317437,-2.03039 1.4484904,-2.94555 0.9861512,-0.98445 1.1239775,-1.19704 2.2551595,-1.20613 z m 37.2313188,0.2005 c -0.475453,-3.8e-4 -0.701743,0.0823 -1.139982,0.41652 -0.862884,0.65799 -1.278214,1.44158 -1.345654,2.53731 -0.04989,0.81059 -0.02107,0.97181 0.243913,1.36374 0.165291,0.24447 0.499512,0.5445 0.74259,0.66663 0.51797,0.26008 0.546704,0.26221 1.180807,0.0863 1.100076,-0.30549 2.118216,-1.74964 2.118216,-3.00446 0,-1.33884 -0.632697,-2.06514 -1.79989,-2.06603 z m -35.6340003,0.78755 c -1.3302211,-0.0416 -2.7386376,1.30045 -2.7398844,3.35535 -7.04e-4,1.18491 0.4771137,2.10834 1.3255004,2.56264 1.1351593,0.60787 2.39420767,0.062 3.12849126,-1.35651 0.35514888,-0.68607 0.41392822,-0.92988 0.41392822,-1.71617 0,-0.72255 -0.0666213,-1.04934 -0.31522624,-1.54461 -0.44038231,-0.87732 -1.11602704,-1.27893 -1.81280924,-1.3007 z m 35.6479533,0.30644 c 0.115389,0.003 0.263872,0.0511 0.374654,0.12868 0.59897,0.41953 0.177099,2.08278 -0.657324,2.59157 -0.493805,0.30106 -0.646805,0.30936 -0.906405,0.0496 -0.251902,-0.25193 -0.263875,-1.21446 -0.02067,-1.68 0.204,-0.39047 0.799149,-0.96856 1.107942,-1.07642 0.02856,-0.01 0.06334,-0.0143 0.101803,-0.0134 z m -5.41569,0.14728 v 5.2e-4 c 0.402886,0.008 0.659681,0.025 0.673861,0.0481 0.02836,0.0461 0.02213,0.16013 -0.01395,0.25373 -0.04694,0.12178 -0.399396,0.17979 -1.238684,0.20309 -0.645185,0.0179 -1.615653,0.0667 -2.156974,0.10852 l -0.984436,0.0754 v -0.32452 -0.32505 l 2.171443,-0.0377 c 0.597116,-0.0103 1.145841,-0.0116 1.548743,-0.002 z m -30.4064129,0.59118 c 0.1062834,-0.007 0.2090762,0.0384 0.3886068,0.13126 1.08113042,0.55909 1.12045906,2.5596 0.068213,3.48351 -0.5234565,0.4596 -0.9107803,0.49694 -1.3730428,0.13332 -0.9274997,-0.72959 -0.6229742,-2.86276 0.5084961,-3.56206 0.1917611,-0.11852 0.3014452,-0.17868 0.4077269,-0.18603 z m 23.1877319,1.36529 c 0.314262,-0.004 0.518972,0.003 0.537952,0.0217 0.03796,0.038 -0.20602,0.24318 -0.542086,0.45631 v 5.1e-4 c -0.481772,0.30555 -0.747052,0.38531 -1.253154,0.37931 -0.744092,-0.009 -1.060871,-0.11747 -1.37666,-0.46871 -0.224947,-0.25021 -0.212099,-0.25286 1.438155,-0.34416 0.457833,-0.0254 0.881531,-0.0408 1.195793,-0.045 z"
         sodipodi:nodetypes="cccsccscsscscccsccccccccscccssccccccscscccscccscccccccccccccccccccccccccccccccccccccccccccccssccccccccccccccccccccccccccccccccscscsssccccccscccccccccccccccccccccccccccccscsccccccccccccccccssccscccccccsscsscccsccccscssccccccscccscccsccccsscscscsssccccccscscsssscccsssscccsccssccscsscssccsscsscccccccccssssssccccccccccccccccccccccccccccccccccsscsccccccccccccsccssccsssccccsssssscsssccccsscsccssscscsccssccccsscssscscssccssscssssscccccsccccccsscccccccccsssccccccsccc" /></g></g><g
     inkscape:groupmode="layer"
     id="layer2"
     inkscape:label="Ebene 2"><g
       id="g598"
       transform="matrix(1.9451759,0,0,1.9451759,76.563109,-283.22881)"><path
         id="path604"
         style="fill:#999999;stroke-width:0.127"
         d="m 16.105056,150.29902 c -2.572403,0.002 -5.166489,0.12757 -7.7586955,0.3824 -12.7537863,1.25381 -23.8988395,5.25624 -32.0037355,11.49336 -1.723782,1.32653 -4.859432,4.49717 -6.049243,6.11694 -2.895448,3.94162 -4.275154,7.82457 -4.277259,12.03802 -0.0014,2.9057 0.569176,5.35192 1.881539,8.06463 4.259754,8.80502 15.266035,15.71404 29.7175711,18.65467 3.00345636,0.61115 6.0482794,1.03036 9.7151694,1.33842 2.1615025,0.1816 9.5400535,0.14833 11.9145135,-0.0543 6.89519,-0.58728 12.203029,-1.64843 18.058329,-3.61063 10.19106,-3.41518 18.058629,-8.81036 22.359359,-15.33343 3.3338,-5.05659 4.2826,-10.58453 2.7342,-15.92771 -1.37977,-4.76134 -5.008719,-9.45142 -10.171989,-13.147 -8.966146,-6.41762 -22.228814,-10.02465 -36.119759,-10.01541 z m 0.08268,0.59169 c 1.693434,-0.007 3.287587,0.0196 4.414201,0.0863 19.27753,1.14058 34.973445,8.8926 40.191345,19.84995 1.21015,2.54128 1.644279,4.3099 1.744079,7.10758 0.0858,2.40431 -0.12266,3.89795 -0.84956,6.09162 -1.11189,3.35535 -2.895049,6.15941 -5.834269,9.17411 -1.95103,2.0012 -3.184628,3.00447 -3.694348,3.00447 -0.99371,0 -3.376961,-0.46753 -6.792351,-1.33273 -4.16441,-1.05495 -5.593313,-1.35603 -8.115783,-1.70998 -0.97126,-0.13628 -1.816409,-0.29867 -1.878439,-0.3607 -6.21e-4,-6.2e-4 -9.34e-4,-0.004 -0.0016,-0.005 -0.02651,-1.5e-4 -0.053,-2.6e-4 -0.07958,-5.1e-4 -0.10832,-0.001 -0.216795,-0.003 -0.325044,-0.007 -0.11934,-0.005 -0.238505,-0.0119 -0.357085,-0.0269 -0.0846,-0.0105 -0.169781,-0.0227 -0.255281,-0.0207 H 34.048096 33.87343 v 0.0661 l -0.396875,-0.0791 c -0.21827,-0.0437 -0.718143,-0.0805 -1.111043,-0.0816 l -0.714685,-0.002 -0.02791,-0.0543 c -0.05201,-0.003 -0.103806,-0.008 -0.155546,-0.015 -0.05357,-0.006 -0.10783,-0.004 -0.16123,-0.0124 -0.05217,-0.006 -0.10408,-0.0161 -0.15658,-0.0191 -0.04386,-0.005 -0.08757,-0.009 -0.131775,-0.007 -0.06016,-0.001 -0.12025,-5.8e-4 -0.18035,-0.003 -0.0779,-0.002 -0.155978,-0.005 -0.233578,-0.0134 -0.06736,-0.008 -0.133721,-0.0199 -0.201021,-0.0279 -0.04389,-0.007 -0.08821,-0.0154 -0.132809,-0.0145 h -0.155546 -0.177767 -0.02532 l 0.02119,0.0439 -0.791683,0.001 c -0.43542,3.9e-4 -1.354719,0.0376 -2.042769,0.0832 l -1.251086,0.0827 0.04496,-0.0879 c -0.03728,0.002 -0.07449,0.004 -0.111621,0.007 -0.07796,0.007 -0.155794,0.014 -0.234094,0.0145 -0.09749,0.004 -0.195289,0.01 -0.292489,0.0176 -0.08762,0.006 -0.175116,0.01 -0.262516,0.0186 -0.05707,0.005 -0.114649,0.006 -0.171049,0.0165 -0.0608,0.009 -0.122368,0.0146 -0.183968,0.0145 -0.01306,-5.6e-4 -0.02623,-0.001 -0.03927,-0.002 l -0.01757,0.0362 -1.290361,0.15503 c -0.70963,0.0852 -1.421632,0.19004 -1.582332,0.23306 -0.124573,0.0333 -0.191766,0.0475 -0.203089,-5.2e-4 -0.03192,0.008 -0.06392,0.0146 -0.0956,0.0238 -0.04041,0.0101 -0.08244,0.0157 -0.120923,0.0326 -0.04844,0.0161 -0.09786,0.0287 -0.148311,0.0367 -0.04229,0.0103 -0.08268,0.0262 -0.125057,0.0362 -0.0525,0.0183 -0.104163,0.0388 -0.157613,0.0543 -0.05164,0.0143 -0.10378,0.028 -0.15503,0.0434 -0.05144,0.0166 -0.102665,0.0312 -0.152445,0.0527 -0.0478,0.0192 -0.0945,0.0422 -0.141077,0.0641 -0.04692,0.0234 -0.09616,0.042 -0.142627,0.0661 -0.04664,0.0195 -0.08613,0.0517 -0.132808,0.0713 -0.0448,0.0246 -0.08745,0.0529 -0.132809,0.0765 -0.0448,0.0274 -0.09159,0.05 -0.138492,0.0734 -0.05013,0.0216 -0.09805,0.0488 -0.148312,0.0703 -0.05299,0.0211 -0.105316,0.0424 -0.158646,0.0625 -0.0498,0.022 -0.100636,0.0421 -0.150896,0.063 -0.05253,0.0204 -0.103276,0.044 -0.155546,0.0651 -0.05436,0.0213 -0.108404,0.0442 -0.162264,0.0667 -0.0534,0.0216 -0.106956,0.0421 -0.158646,0.0677 -0.05168,0.0225 -0.09966,0.0533 -0.152446,0.0734 -0.05052,0.0226 -0.101579,0.0442 -0.155029,0.0589 -0.03754,0.0136 -0.07346,0.0313 -0.107487,0.0522 -0.03558,0.0152 -0.05928,0.0496 -0.09147,0.0703 -0.04027,0.0286 -0.08331,0.0526 -0.124024,0.0806 -0.04077,0.0232 -0.08229,0.0458 -0.122473,0.0698 -0.05121,0.0318 -0.10511,0.0582 -0.15968,0.0837 -0.05048,0.0273 -0.101366,0.0544 -0.153996,0.0775 -0.04457,0.0223 -0.08804,0.0458 -0.132808,0.0677 -0.04993,0.0231 -0.0976,0.0522 -0.150895,0.0677 -0.05809,0.0231 -0.115543,0.0478 -0.173633,0.0708 -0.05498,0.02 -0.112442,0.0316 -0.165882,0.0558 -0.05458,0.0251 -0.111071,0.0461 -0.165881,0.0708 -0.04229,0.0196 -0.08242,0.041 -0.120923,0.0677 -0.04441,0.0283 -0.08852,0.0567 -0.134875,0.0817 -0.04144,0.0196 -0.07906,0.0467 -0.118856,0.0692 -0.0471,0.0247 -0.09469,0.0492 -0.142627,0.0723 -0.04255,0.0198 -0.07661,0.0537 -0.119373,0.0734 -0.04667,0.0285 -0.09425,0.0547 -0.142627,0.0801 -0.044,0.0186 -0.0881,0.037 -0.131774,0.0563 -0.05557,0.0294 -0.110693,0.0606 -0.172083,0.0765 -0.04943,0.0175 -0.09855,0.0355 -0.147278,0.0548 -0.03014,0.0116 -0.06061,0.0224 -0.09147,0.032 l -1.223181,0.76688 c -1.38217,0.86667 -2.211362,1.18922 -3.751192,1.4583 -0.9707925,0.16965 -3.3017819,0.227 -4.0793329,0.0997 -2.263765,-0.36967 -3.4208111,-0.71007 -6.27506916,-1.84382 -2.83220404,-1.12493 -6.04817164,-1.87998 -8.00622964,-1.87998 -1.433755,0 -3.3718483,0.28239 -4.9345873,0.71933 -0.05291,0.0148 -0.08774,0.0168 -0.106454,0.002 -0.01294,0.003 -0.02587,0.006 -0.03876,0.009 -0.05993,0.0128 -0.119557,0.0266 -0.177767,0.046 -0.05645,0.0175 -0.113482,0.0337 -0.170532,0.0491 -0.05777,0.0124 -0.115743,0.0242 -0.173633,0.0362 -0.05846,0.018 -0.116235,0.0375 -0.174666,0.0558 -0.06181,0.0262 -0.128,0.0394 -0.19172,0.0594 -0.0567,0.0207 -0.112993,0.0397 -0.172083,0.0527 -0.06194,0.0174 -0.124959,0.0303 -0.188619,0.0393 -0.05519,0.007 -0.109627,0.0194 -0.164847,0.0274 -0.07416,0.006 -0.147334,0.0158 -0.221175,0.0248 -0.06644,0.008 -0.133322,0.009 -0.199472,0.0191 -0.05695,0.0113 -0.115359,0.0127 -0.172599,0.0217 -0.06095,0.007 -0.120337,0.0207 -0.179317,0.0372 -0.05951,0.017 -0.120984,0.0267 -0.179834,0.046 -0.05842,0.0181 -0.117247,0.036 -0.176217,0.0522 -0.02799,0.0103 -0.05646,0.0184 -0.08527,0.0253 -0.156366,0.0696 -0.331549,0.13239 -0.553454,0.20154 -0.583145,0.1817 -1.347896,0.29646 -2.222604,0.33331 -0.172377,0.007 -0.28279,0.009 -0.417029,0.0124 -0.0199,0.006 -0.04234,0.01 -0.06718,0.0124 -0.0362,0.004 -0.07257,0.008 -0.109037,0.007 h -0.187069 c -0.05817,-1e-5 -0.115979,4e-5 -0.174149,0 -0.06196,-5e-5 -0.124076,2.7e-4 -0.186036,0 -0.05678,0 -0.113772,-0.001 -0.170532,-0.002 -0.05968,-0.002 -0.1194,-0.005 -0.1788,-0.0109 -0.05285,-0.006 -0.105447,-0.0162 -0.158647,-0.0171 -0.0641,-0.001 -0.127899,-0.004 -0.191719,-0.0103 -0.06055,-0.007 -0.121101,-0.0156 -0.180351,-0.03 -0.0582,-0.009 -0.115366,-0.0205 -0.171566,-0.0382 -0.05089,-0.012 -0.100252,-0.029 -0.149862,-0.045 -0.0498,-0.014 -0.102312,-0.0189 -0.151412,-0.0362 -0.0578,-0.0129 -0.112938,-0.0324 -0.169498,-0.0496 -0.06439,-0.0216 -0.126073,-0.0504 -0.191203,-0.0698 -0.06365,-0.0236 -0.125096,-0.0532 -0.189136,-0.0754 -0.06704,-0.0186 -0.134551,-0.0338 -0.201021,-0.0543 -0.05045,-0.0195 -0.09887,-0.0438 -0.149862,-0.062 -0.04782,-0.0203 -0.09615,-0.04 -0.14366,-0.061 -0.05059,-0.0226 -0.101442,-0.0437 -0.152962,-0.0641 -0.05386,-0.0213 -0.109671,-0.0378 -0.162781,-0.061 -0.04568,-0.0201 -0.09575,-0.0287 -0.141077,-0.0501 -0.06486,-0.0219 -0.125968,-0.0516 -0.185518,-0.0853 -0.04968,-0.026 -0.09703,-0.0565 -0.145211,-0.0853 -0.04229,-0.0284 -0.08735,-0.0526 -0.130225,-0.0801 -0.04754,-0.0258 -0.09538,-0.051 -0.141076,-0.0801 -0.0494,-0.031 -0.104207,-0.0529 -0.157097,-0.077 -0.02888,-0.0128 -0.0575,-0.0259 -0.0863,-0.0388 0.08461,0.23912 -0.871971,-0.52463 -1.902727,-1.52394 -0.724428,-0.70231 -1.438317,-1.55614 -1.906343,-2.28048 -0.928102,-1.43634 -0.98047,-1.49838 -1.223181,-1.45055 -0.297763,0.0587 -0.462244,0.40454 -0.36897,0.77618 0.04584,0.18264 0.476797,0.92018 0.957564,1.63917 1.083372,1.62012 2.746087,3.25111 4.078304,4.00028 2.009701,1.13013 4.822757,1.49711 7.058484,0.92087 2.522075,-0.65004 5.889455,-1.39871 6.8905408,-1.53221 1.782007,-0.23765 3.7592294,-0.0195 6.5598064,0.72399 0.4190949,0.11126 1.7619507,0.59305 2.98431384,1.07074 3.99138406,1.5598 6.05239546,1.98796 8.95397296,1.86035 2.850193,-0.12535 3.97279,-0.48837 6.43578,-2.07946 2.39033,-1.5441 4.420566,-2.49612 6.010486,-2.81844 2.06085,-0.41778 3.978432,-0.5585 7.683252,-0.56378 5.3273,-0.008 8.507456,0.43621 15.430066,2.15335 2.37488,0.58904 4.775251,1.14298 5.334041,1.23093 l 1.015959,0.1602 -0.606681,0.43925 c -0.33376,0.24167 -1.38951,0.91212 -2.34611,1.48983 -7.99349,4.82744 -18.376425,7.83169 -29.939775,8.66304 -1.61717,0.11627 -8.462764,0.14564 -9.8428055,0.0424 -7.1312013,-0.53538 -12.4844709,-1.53984 -18.097086,-3.39514 -8.0665925,-2.66649 -14.7043895,-6.77809 -18.7425305,-11.61066 -2.590512,-3.10018 -4.161478,-6.34759 -4.771285,-9.86244 -0.246754,-1.42226 -0.173763,-4.87927 0.131258,-6.22288 1.734237,-7.63938 8.038278,-14.40571 17.921387,-19.23552 6.9665085,-3.40451 14.73117898,-5.49956 23.812504,-6.42545 1.66686,-0.16995 4.764736,-0.27447 7.58713,-0.28577 z m -9.6304169,40.94164 c -0.054375,0 -0.1089476,0.001 -0.1632976,0.003 -0.048388,0.002 -0.096584,0.005 -0.144694,0.0109 -0.046642,0.005 -0.093123,0.006 -0.1400431,0.005 -0.047087,0 -0.094008,2.4e-4 -0.1410767,0.002 -0.040547,0.001 -0.08112,0.003 -0.1214396,0.008 -0.046839,0.006 -0.093807,0.0126 -0.1410766,0.0129 -0.046673,0.002 -0.093076,0.006 -0.1395264,0.0114 -0.05647,0.006 -0.1133055,0.006 -0.1700155,0.006 -0.045278,0.001 -0.090292,0.002 -0.1353922,0.006 -0.05015,0.005 -0.1003852,0.0129 -0.1508952,0.0124 -0.051518,0.001 -0.1030531,0.001 -0.1545125,0.004 -0.052815,0.003 -0.1055005,0.007 -0.1581299,0.0124 -0.055979,0.003 -0.111889,0.002 -0.1679484,0.002 -0.050815,0 -0.1016355,-2e-5 -0.1524455,0 -0.043037,3e-5 -0.086161,-1.5e-4 -0.1291911,0 -0.04597,5e-5 -0.092006,4.7e-4 -0.137976,0.001 -0.050959,0.001 -0.1020923,0.002 -0.1529623,0.005 -0.059015,0.004 -0.1177234,0.0105 -0.1767334,0.0145 -0.049909,0.001 -0.099545,0.002 -0.1493449,0.006 -0.053096,0.004 -0.1061334,0.011 -0.1591634,0.016 -0.056716,0.002 -0.1131987,0.005 -0.1694987,0.0129 -0.061522,0.008 -0.1231422,0.0152 -0.1850016,0.0202 -0.061569,0.006 -0.1232922,0.008 -0.1850016,0.0119 -0.066154,0.005 -0.1321781,0.0135 -0.1984375,0.0165 -0.044233,0.003 -0.088635,0.007 -0.1317749,0.0181 -0.048751,0.0116 -0.097688,0.0223 -0.1457276,0.0367 -0.062898,0.0158 -0.1274128,0.0237 -0.1912028,0.0351 -0.051228,0.007 -0.102139,0.0131 -0.153479,0.0191 v -10e-4 c -0.045344,0.005 -0.08157,-0.002 -0.1080037,-0.0155 -0.096169,0.0113 -0.2052126,0.0196 -0.3291789,0.0202 -0.92475882,0.004 -2.29530792,0.22724 -3.1750002,0.5178 -0.6363039,0.21018 -0.8099164,0.3256 -0.8738484,0.58033 -0.05111,0.20364 -0.011194,0.38619 0.1105876,0.50798 0.168761,0.1687 0.2878847,0.15947 1.0640176,-0.0806 1.10856642,-0.34313 3.6914451,-0.57522 6.3985761,-0.57516 2.3027403,5e-5 2.5551508,0.0471 5.8838738,1.10329 1.41508,0.44899 1.735931,0.50838 2.443261,0.45166 0.594478,-0.0477 0.755515,-0.0583 0.90072,0.10283 -0.0013,-0.002 -0.0028,-0.004 -0.0041,-0.007 -0.02473,-0.0357 -0.04981,-0.0707 -0.07183,-0.10801 -0.02711,-0.0367 -0.05428,-0.073 -0.08372,-0.108 -0.0265,-0.0377 -0.04883,-0.0782 -0.077,-0.11472 -0.02766,-0.0431 -0.06316,-0.0807 -0.0894,-0.12506 -0.03108,-0.0498 -0.06892,-0.0954 -0.09767,-0.14676 -0.02719,-0.0453 -0.05518,-0.0898 -0.0801,-0.13643 -0.5049,-1.24897 -1.365467,-0.52394 -3.001876,-1.05626 v 5.1e-4 c -0.939044,-0.30898 -2.3198345,-0.68723 -3.068541,-0.84025 l -1.3611572,-0.27802 0.00103,-5.2e-4 c -0.011541,6e-5 -0.023082,-1.1e-4 -0.034623,0 z m 18.7492379,4.21266 c -1.097449,0.012 -2.006068,0.21837 -2.862358,0.62012 -1.12705,0.52877 -1.397847,0.74939 -1.397847,1.14101 0,0.55275 0.345649,0.56126 1.388029,0.032 0.53707,-0.27251 1.338399,-0.55751 1.792139,-0.63768 v -5.2e-4 c 1.01736,-0.17976 2.807448,0.0137 4.948018,0.53433 1.89064,0.45987 3.15612,0.63021 4.6762,0.62942 1.48197,-7.6e-4 5.321698,-0.3267 6.000668,-0.50953 0.79248,-0.21339 1.100826,-0.67224 0.684196,-1.01802 -0.157,-0.1303 -0.439187,-0.133 -1.428337,-0.0124 -4.72722,0.57624 -6.506353,0.53396 -9.805603,-0.23358 -1.611325,-0.37486 -2.897656,-0.55715 -3.995105,-0.54519 z m -38.655005,1.25057 c -0.299002,0.002 -0.403076,0.17992 -0.403076,0.56379 0,0.3276 0.06658,0.37389 0.920874,0.63666 1.703051,0.52374 2.9430485,0.59668 5.1371593,0.3023 0.824308,-0.1106 2.4129449,-0.21724 3.5305339,-0.23719 1.117589,-0.0199 2.1323194,-0.0789 2.2551594,-0.13074 0.347134,-0.14634 0.434326,-0.70315 0.144694,-0.9245 -0.315976,-0.24148 -4.0587507,-0.13854 -6.0828327,0.16744 -1.791117,0.27076 -3.6155739,0.19448 -4.7340829,-0.19792 -0.339349,-0.11905 -0.589028,-0.18108 -0.768429,-0.17984 z"
         sodipodi:nodetypes="ccsccssscscscccccssccsssscscccccccscccccccccccccccccccccccccccccccccccccccccccccccccccccccccccccccccccccccsccsscccccccccccccccccsccccsscccccccccccccccsccccccccsssscsssssscsccccssscsssssscccccccccccccccsscccccccccccccccccssccsssccccccccccccccccsscccsssscscccscsccsssc" /></g></g><g
     inkscape:groupmode="layer"
     id="layer3"
     inkscape:label="Ebene 3"><g
       id="g248"
       transform="matrix(1.9451759,0,0,1.9451759,47.43772,-175.46217)"><path
         style="fill:#c97026;stroke-width:0.127"
         d="m 63.046649,137.86448 c -0.1397,-0.06 -1.59417,-0.11317 -3.23215,-0.11808 -2.31634,-0.007 -2.94428,-0.0428 -2.82575,-0.16132 0.2024,-0.2024 0.21971,-6.1976 0.0179,-6.1976 -0.074,0 -0.0992,-0.0572 -0.056,-0.127 0.0488,-0.079 1.22899,-0.127 3.11899,-0.127 1.94234,0 3.04051,-0.0459 3.04051,-0.127 0,-0.0699 0.0572,-0.127 0.127,-0.127 0.072,0 0.127,0.3683 0.127,0.8509 0,0.66181 -0.0339,0.81703 -0.1524,0.6985 -0.10678,-0.10679 -0.80998,-0.1524 -2.3495,-0.1524 h -2.1971 v 0.762 0.762 h 1.40099 c 1.12817,0 1.41522,-0.0371 1.47409,-0.1905 0.1721,-0.44848 0.29992,-0.12372 0.29992,0.762 0,0.88572 -0.12782,1.21048 -0.29992,0.762 -0.0589,-0.15341 -0.34592,-0.1905 -1.47409,-0.1905 h -1.40099 v 0.8255 0.8255 h 2.21501 c 1.33967,0 2.24602,-0.0502 2.29349,-0.127 0.1983,-0.32086 0.3175,-0.0586 0.3175,0.6985 0,0.85268 -0.0184,0.8816 -0.4445,0.6985 z m -23.8125,-0.1826 c 0,0 0.34391,-0.34308 0.33276,-0.32557 l 1.37932,-2.86121 c 1.05372,-2.18579 1.34422,-2.8963 1.23061,-3.0099 -0.28976,-0.28976 -0.13719,-0.35189 0.86414,-0.35189 h 1.01282 l -0.0743,0.37138 c -0.0606,0.30288 0.17829,0.85919 1.29506,3.01625 0.75314,1.45468 1.47378,2.71955 1.60144,2.81082 0.12767,0.0913 0.23212,0.24844 0.23212,0.34925 0,0.14631 -0.2334,0.1833 -1.15676,0.1833 h -1.15677 l 0.0785,-0.31289 0.0785,-0.31288 c 0.0115,0.005 -0.007,-0.1362 -0.007,-0.1362 l -0.21196,-0.4445 -0.21197,-0.4445 h -1.5614 -1.5614 l -0.25916,0.508 c -0.40867,0.5628 -0.15145,0.79512 -0.1482,0.81237 0.32136,0.19861 -0.0281,0.33063 -0.87525,0.33063 -0.68162,0 -0.88151,-0.0414 -0.88151,-0.18246 z m 4.699,-2.59359 c 0,-0.06 -0.22115,-0.588 -0.49146,-1.17339 l -0.49147,-1.06434 -0.5893,1.17339 -0.58932,1.17339 h 1.08078 c 0.59443,0 1.08077,-0.0491 1.08077,-0.10905 z m 4.445,2.60036 c 0,-0.0966 0.1143,-0.20558 0.254,-0.24211 0.24477,-0.064 0.254,-0.17323 0.254,-3.0034 0,-2.92845 -0.001,-2.93731 -0.28575,-3.04717 -0.57208,-0.22061 0.12105,-0.28186 2.71981,-0.24037 2.83262,0.0452 3.29178,0.15181 3.83023,0.88903 0.35161,0.48141 0.41196,1.4535 0.1245,2.00539 -0.41438,0.79552 -0.86756,0.94846 -3.02329,1.02032 l -1.905,0.0635 -0.0368,1.1218 c -0.0341,1.03833 -0.0176,1.12685 0.22225,1.18957 0.14249,0.0373 0.25909,0.14681 0.25909,0.24344 0,0.13726 -0.26393,0.17569 -1.2065,0.17569 -0.94257,0 -1.2065,-0.0384 -1.2065,-0.17569 z m 5.46302,-3.96616 c 0.2189,-0.21947 0.18834,-0.9292 -0.0503,-1.16807 -0.17878,-0.17895 -0.48253,-0.21458 -1.8293,-0.21458 h -1.61492 l -0.0393,0.61886 c -0.0649,1.02004 -0.11236,0.9943 1.74775,0.94698 0.98319,-0.025 1.70185,-0.0987 1.78611,-0.18319 z m -3.36752,-8.68523 c -0.0489,-0.0792 -1.27132,-0.127 -3.24599,-0.127 -2.85454,0 -3.57061,-0.0721 -2.97701,-0.29993 0.16171,-0.062 0.1905,-0.5157 0.1905,-3.00207 0,-2.48638 -0.0288,-2.94002 -0.1905,-3.00207 -0.46578,-0.17875 -0.10659,-0.29993 0.889,-0.29993 0.99559,0 1.35479,0.12118 0.889,0.29993 -0.16056,0.0616 -0.1905,0.47292 -0.1905,2.61708 v 2.54399 h 2.18076 c 1.85098,0 2.21587,-0.0318 2.413,-0.21019 0.22293,-0.20176 0.23224,-0.17377 0.23224,0.6985 0,0.89315 -0.0344,1.03427 -0.1905,0.78169 z m 15.621,0 c -0.0489,-0.0791 -1.25015,-0.127 -3.18249,-0.127 -1.98467,0 -3.10401,-0.0458 -3.10401,-0.127 0,-0.0699 0.0572,-0.127 0.127,-0.127 0.0811,0 0.127,-1.10067 0.127,-3.048 0,-1.94733 -0.0459,-3.048 -0.127,-3.048 -0.0699,0 -0.127,-0.0572 -0.127,-0.127 0,-0.0811 1.09817,-0.127 3.04051,-0.127 1.89,0 3.0702,-0.0481 3.11899,-0.127 0.19849,-0.32116 0.3175,-0.0582 0.3175,0.70143 v 0.82842 l -0.30014,-0.19665 c -0.24624,-0.16135 -0.67385,-0.19038 -2.38125,-0.16168 l -2.08111,0.035 -0.0378,0.79375 -0.0378,0.79375 h 1.39584 c 1.25041,0 1.41434,-0.0264 1.5732,-0.25319 0.0975,-0.13926 0.21508,-0.21546 0.2612,-0.16934 0.0967,0.0967 0.11603,1.94653 0.0204,1.94653 -0.0349,0 -0.17978,-0.11628 -0.32189,-0.2584 -0.23164,-0.23163 -0.39274,-0.25465 -1.55575,-0.22225 l -1.29736,0.0361 -0.0376,0.85725 -0.0376,0.85725 h 2.21276 c 1.80469,0 2.24169,-0.0349 2.3697,-0.1891 0.26554,-0.31997 0.38215,-0.0856 0.38215,0.76809 0,0.75057 -0.1197,1.01107 -0.3175,0.69101 z m -36.8935,-0.374 c -0.38417,-0.13874 -0.79851,-0.25413 -0.92075,-0.25641 -0.27886,-0.005 -0.28407,0.0346 0.10717,-0.81998 l 0.32941,-0.71954 0.29093,0.31392 c 0.56274,0.6072 2.29292,0.89363 3.398,0.56254 0.61261,-0.18355 0.93821,-0.60723 0.74461,-0.96896 -0.16635,-0.31086 -0.37303,-0.36153 -2.16269,-0.5303 -1.98293,-0.187 -2.58607,-0.5009 -2.80199,-1.45829 -0.23104,-1.02437 0.45166,-2.02914 1.60654,-2.36441 0.90209,-0.26189 2.48617,-0.20607 3.43702,0.12112 0.43436,0.14947 0.90584,0.27176 1.04775,0.27176 0.1419,0 0.258,0.0302 0.258,0.0671 0,0.0369 -0.17698,0.41772 -0.39329,0.84624 l -0.39331,0.77911 -0.31351,-0.40061 c -0.8052,-1.02885 -3.85289,-1.03289 -3.85289,-0.005 0,0.41016 0.5529,0.62827 1.92664,0.76002 1.92565,0.18468 2.61112,0.44802 2.96935,1.14077 0.48062,0.92942 0.051,1.991 -1.02266,2.52671 -0.54784,0.27335 -0.83494,0.32154 -2.09533,0.35166 -1.19924,0.0286 -1.58544,-0.0102 -2.159,-0.21737 z m 9.271,0.12794 c 0,-0.0657 0.0572,-0.15482 0.127,-0.19799 0.0698,-0.0432 0.127,-0.5796 0.127,-1.19207 v -1.11357 l -1.29392,-1.81808 c -0.71166,-0.99994 -1.39746,-1.84515 -1.524,-1.87824 -0.12655,-0.0331 -0.23008,-0.11065 -0.23008,-0.17235 0,-0.0617 0.61437,-0.11037 1.36525,-0.10815 1.2148,0.004 1.33867,0.0241 1.12408,0.18658 -0.23078,0.17469 -0.2089,0.23184 0.508,1.32747 0.41205,0.62971 0.79131,1.14582 0.84282,1.14692 0.0914,0.002 1.64262,-2.05785 1.72668,-2.29273 0.0233,-0.065 -0.0481,-0.11828 -0.15875,-0.11828 -0.11059,0 -0.20108,-0.0572 -0.20108,-0.127 0,-0.0747 0.4445,-0.127 1.0795,-0.127 1.09972,0 1.27266,0.0723 0.83179,0.3476 -0.13625,0.0851 -0.79347,0.92335 -1.4605,1.8628 l -1.21279,1.70809 v 1.21575 c 0,0.72584 0.0512,1.21576 0.127,1.21576 0.0699,0 0.127,0.0572 0.127,0.127 0,0.0734 -0.40217,0.127 -0.9525,0.127 -0.52387,0 -0.9525,-0.0538 -0.9525,-0.11951 z m 15.367,-0.007 c 0,-0.0699 0.0571,-0.127 0.127,-0.127 0.0805,0 0.127,-0.9525 0.127,-2.6035 v -2.6035 h -1.1355 c -0.62453,0 -1.17083,0.0572 -1.214,0.127 -0.1983,0.32085 -0.3175,0.0586 -0.3175,-0.6985 0,-0.75711 0.1192,-1.01936 0.3175,-0.6985 0.0487,0.0788 1.20532,0.127 3.048,0.127 1.84268,0 2.9993,-0.0482 3.048,-0.127 0.1983,-0.32086 0.3175,-0.0586 0.3175,0.6985 0,0.75711 -0.1192,1.01935 -0.3175,0.6985 -0.0432,-0.0698 -0.58947,-0.127 -1.21399,-0.127 h -1.13551 v 2.6035 c 0,1.651 0.0465,2.6035 0.127,2.6035 0.0698,0 0.127,0.0572 0.127,0.127 0,0.0734 -0.40217,0.127 -0.9525,0.127 -0.55033,0 -0.9525,-0.0536 -0.9525,-0.127 z m 14.38275,-0.0498 c 0.20065,-0.15231 0.22225,-0.46062 0.22225,-3.17096 0,-1.91684 -0.0459,-3.00225 -0.127,-3.00225 -0.0699,0 -0.127,-0.0611 -0.127,-0.13588 0,-0.0936 0.85975,-0.12324 2.76225,-0.0953 2.49052,0.0366 2.80467,0.0656 3.19348,0.29463 0.65948,0.38845 0.93008,0.83293 0.93871,1.54191 0.0104,0.86215 -0.28494,1.35706 -1.01722,1.70413 -0.33369,0.15816 -0.62657,0.30292 -0.65083,0.32169 -0.10407,0.0806 1.66764,2.46477 1.83159,2.46477 0.0996,0 0.18102,0.0572 0.18102,0.127 0,0.0757 -0.48683,0.127 -1.2065,0.127 -0.71967,0 -1.2065,-0.0512 -1.2065,-0.127 0,-0.0699 0.0572,-0.127 0.127,-0.127 0.25474,0 0.11147,-0.29949 -0.64365,-1.34549 l -0.77065,-1.06751 h -0.88035 -0.88035 v 1.16075 c 0,0.95653 0.0391,1.19043 0.22225,1.32946 0.18975,0.14404 0.0458,0.16871 -0.98425,0.16871 -1.03006,0 -1.174,-0.0247 -0.98425,-0.16871 z m 5.16232,-3.81165 c 0.30183,-0.27356 0.34855,-0.80439 0.10065,-1.14341 -0.21472,-0.29365 -1.01575,-0.4437 -2.40547,-0.45062 l -1.11125,-0.006 v 0.96286 0.96285 l 1.57457,-0.0421 c 1.33297,-0.0357 1.61553,-0.0792 1.8415,-0.28405 z m -11.86054,-8.71054 c -0.0505,-0.0817 -1.21822,-0.12907 -3.18377,-0.12907 -2.85196,0 -3.39673,-0.0581 -2.97701,-0.3175 0.19984,-0.12351 0.16941,-5.99007 -0.0318,-6.12026 -0.0873,-0.0565 1.23673,-0.13132 2.94233,-0.16624 2.32183,-0.0476 3.11431,-0.10339 3.15382,-0.22225 0.13885,-0.41777 0.2856,-0.0752 0.2856,0.66675 0,0.75711 -0.1192,1.01935 -0.3175,0.6985 -0.0475,-0.0768 -0.95382,-0.127 -2.29349,-0.127 h -2.21501 v 0.762 0.762 h 1.46449 c 1.1846,0 1.47846,-0.0364 1.53759,-0.1905 0.17089,-0.44535 0.29992,-0.12663 0.29992,0.74083 0,1.02975 -0.0796,1.22486 -0.34506,0.84586 -0.15886,-0.2268 -0.32279,-0.25319 -1.57294,-0.25319 h -1.39561 l 0.0376,0.85725 0.0375,0.85725 2.14551,0.0349 c 1.78043,0.029 2.18199,0.002 2.35982,-0.15903 0.30401,-0.27512 0.38417,-0.12712 0.38417,0.7093 0,0.69581 -0.14187,1.03249 -0.31622,0.7504 z m -19.74978,-0.23729 c 0,-0.0719 0.0571,-0.16611 0.127,-0.20928 0.0788,-0.0487 0.127,-1.20782 0.127,-3.0555 0,-1.9 -0.0459,-2.977 -0.127,-2.977 -0.0699,0 -0.127,-0.0572 -0.127,-0.127 0,-0.17803 4.74787,-0.16479 5.3975,0.0151 0.67404,0.18659 1.63985,1.15241 1.82645,1.82645 0.18974,0.68538 0.16946,2.05097 -0.0392,2.63551 -0.26129,0.73218 -0.76074,1.30094 -1.43149,1.63014 -0.56739,0.27847 -0.78867,0.30253 -3.18156,0.34586 -1.7097,0.031 -2.57175,0.003 -2.57175,-0.0842 z m 5.02345,-1.23709 c 0.66738,-0.31669 0.99446,-1.1152 0.9145,-2.23263 -0.1133,-1.58358 -0.57987,-1.91547 -2.7947,-1.98797 l -1.49225,-0.0488 v 2.23587 2.23588 h 1.47306 c 1.08451,0 1.58551,-0.0534 1.89939,-0.20231 z m 4.24755,1.2258 c 0,-0.0657 0.0571,-0.15482 0.127,-0.19799 0.0788,-0.0487 0.127,-1.20572 0.127,-3.04919 0,-2.69525 -0.0206,-2.98269 -0.22225,-3.10014 -0.16318,-0.095 0.0783,-0.13047 0.90869,-0.13331 1.08769,-0.004 1.12289,0.005 0.92075,0.22839 -0.18259,0.20175 -0.21019,0.61082 -0.21019,3.11548 0,2.44572 0.0289,2.89433 0.1905,2.95634 0.45744,0.17554 0.11509,0.29993 -0.8255,0.29993 -0.5588,0 -1.016,-0.0538 -1.016,-0.11951 z"
         id="path252-3"
         sodipodi:nodetypes="scsscsssssscccssssscccssssccssscsssssccccccccccsccsscccsscsscsssscsssscccssccsccsscssssscsssscssssssscscsscccsssssscccscsccccscsssssssssscssssscccssscssscsscsssssscsssssssscscssssscscssssscssssscscsssssscccssscccsccccccccssscsssscccssssscccccscccsssscscssccssccccssssssscsssss" /></g></g></svg>
